REM DIRINDEX 1\2,1\4,1\3\5,1\3\6,1\3\7
REM DIRNAME cjc081,folder01,folder02,folder03,folder04,folder05,folder06
TITLE ""
FILE "CD2Track22.mp3" MP3
  TRACK 01 AUDIO
    TITLE "0:"
    INDEX 01 00:00:00
  TRACK 02 AUDIO
    TITLE "4:cjc081_1527"
    INDEX 01 00:00:23
  TRACK 03 AUDIO
    TITLE "0:"
    INDEX 01 00:04:36
  TRACK 04 AUDIO
    TITLE "5:cjc081_1528"
    INDEX 01 00:05:09
  TRACK 05 AUDIO
    TITLE "0:"
    INDEX 01 00:06:51
  TRACK 06 AUDIO
    TITLE "6:cjc081_1529"
    INDEX 01 00:07:19
  TRACK 07 AUDIO
    TITLE "0:"
    INDEX 01 00:08:70
  TRACK 08 AUDIO
    TITLE "5:cjc081_1530"
    INDEX 01 00:09:32
  TRACK 09 AUDIO
    TITLE "0:"
    INDEX 01 00:10:51
  TRACK 10 AUDIO
    TITLE "6:cjc081_1531"
    INDEX 01 00:11:23
  TRACK 11 AUDIO
    TITLE "0:"
    INDEX 01 00:13:49
  TRACK 12 AUDIO
    TITLE "5:cjc081_1532"
    INDEX 01 00:14:13
  TRACK 13 AUDIO
    TITLE "0:"
    INDEX 01 00:15:40
  TRACK 14 AUDIO
    TITLE "6:cjc081_1533"
    INDEX 01 00:16:04
  TRACK 15 AUDIO
    TITLE "0:"
    INDEX 01 00:17:33
  TRACK 16 AUDIO
    TITLE "5:cjc081_1534"
    INDEX 01 00:18:01
  TRACK 17 AUDIO
    TITLE "0:"
    INDEX 01 00:19:22
  TRACK 18 AUDIO
    TITLE "6:cjc081_1535"
    INDEX 01 00:19:62
  TRACK 19 AUDIO
    TITLE "0:"
    INDEX 01 00:21:58
  TRACK 20 AUDIO
    TITLE "5:cjc081_1536"
    INDEX 01 00:22:27
  TRACK 21 AUDIO
    TITLE "0:"
    INDEX 01 00:23:61
  TRACK 22 AUDIO
    TITLE "6:cjc081_1537"
    INDEX 01 00:24:31
  TRACK 23 AUDIO
    TITLE "0:"
    INDEX 01 00:26:03
  TRACK 24 AUDIO
    TITLE "5:cjc081_1538"
    INDEX 01 00:26:42
  TRACK 25 AUDIO
    TITLE "0:"
    INDEX 01 00:27:63
  TRACK 26 AUDIO
    TITLE "6:cjc081_1539"
    INDEX 01 00:28:35
  TRACK 27 AUDIO
    TITLE "0:"
    INDEX 01 00:31:18
  TRACK 28 AUDIO
    TITLE "5:cjc081_1540"
    INDEX 01 00:31:59
  TRACK 29 AUDIO
    TITLE "0:"
    INDEX 01 00:33:26
  TRACK 30 AUDIO
    TITLE "6:cjc081_1541"
    INDEX 01 00:33:71
  TRACK 31 AUDIO
    TITLE "0:"
    INDEX 01 00:35:12
  TRACK 32 AUDIO
    TITLE "5:cjc081_1542"
    INDEX 01 00:35:53
  TRACK 33 AUDIO
    TITLE "0:"
    INDEX 01 00:36:72
  TRACK 34 AUDIO
    TITLE "6:cjc081_1543"
    INDEX 01 00:37:44
  TRACK 35 AUDIO
    TITLE "0:"
    INDEX 01 00:38:63
  TRACK 36 AUDIO
    TITLE "5:cjc081_1544"
    INDEX 01 00:39:27
  TRACK 37 AUDIO
    TITLE "0:"
    INDEX 01 00:40:58
  TRACK 38 AUDIO
    TITLE "6:cjc081_1545"
    INDEX 01 00:41:28
  TRACK 39 AUDIO
    TITLE "0:"
    INDEX 01 00:46:04
  TRACK 40 AUDIO
    TITLE "5:cjc081_1546"
    INDEX 01 00:46:47
  TRACK 41 AUDIO
    TITLE "0:"
    INDEX 01 00:47:66
  TRACK 42 AUDIO
    TITLE "6:cjc081_1547"
    INDEX 01 00:48:34
  TRACK 43 AUDIO
    TITLE "0:"
    INDEX 01 00:52:04
  TRACK 44 AUDIO
    TITLE "5:cjc081_1548"
    INDEX 01 00:52:43
  TRACK 45 AUDIO
    TITLE "0:"
    INDEX 01 00:54:15
  TRACK 46 AUDIO
    TITLE "6:cjc081_1549"
    INDEX 01 00:54:56
  TRACK 47 AUDIO
    TITLE "0:"
    INDEX 01 00:56:69
  TRACK 48 AUDIO
    TITLE "5:cjc081_1550"
    INDEX 01 00:57:37
  TRACK 49 AUDIO
    TITLE "0:"
    INDEX 01 00:58:48
  TRACK 50 AUDIO
    TITLE "6:cjc081_1551"
    INDEX 01 00:59:18
  TRACK 51 AUDIO
    TITLE "0:"
    INDEX 01 01:00:51
  TRACK 52 AUDIO
    TITLE "5:cjc081_1552"
    INDEX 01 01:01:11
  TRACK 53 AUDIO
    TITLE "0:"
    INDEX 01 01:02:30
  TRACK 54 AUDIO
    TITLE "6:cjc081_1553"
    INDEX 01 01:02:71
  TRACK 55 AUDIO
    TITLE "0:"
    INDEX 01 01:05:73
  TRACK 56 AUDIO
    TITLE "5:cjc081_1554"
    INDEX 01 01:06:43
  TRACK 57 AUDIO
    TITLE "0:"
    INDEX 01 01:08:09
  TRACK 58 AUDIO
    TITLE "6:cjc081_1555"
    INDEX 01 01:08:54
  TRACK 59 AUDIO
    TITLE "0:"
    INDEX 01 01:10:39
  TRACK 60 AUDIO
    TITLE "5:cjc081_1556"
    INDEX 01 01:11:07
  TRACK 61 AUDIO
    TITLE "0:"
    INDEX 01 01:12:30
  TRACK 62 AUDIO
    TITLE "6:cjc081_1557"
    INDEX 01 01:13:00
  TRACK 63 AUDIO
    TITLE "0:"
    INDEX 01 01:14:70
  TRACK 64 AUDIO
    TITLE "5:cjc081_1558"
    INDEX 01 01:15:35
  TRACK 65 AUDIO
    TITLE "0:"
    INDEX 01 01:16:54
  TRACK 66 AUDIO
    TITLE "6:cjc081_1559"
    INDEX 01 01:17:24
  TRACK 67 AUDIO
    TITLE "0:"
    INDEX 01 01:18:49
  TRACK 68 AUDIO
    TITLE "5:cjc081_1560"
    INDEX 01 01:19:13
  TRACK 69 AUDIO
    TITLE "0:"
    INDEX 01 01:20:40
  TRACK 70 AUDIO
    TITLE "6:cjc081_1561"
    INDEX 01 01:21:08
  TRACK 71 AUDIO
    TITLE "0:"
    INDEX 01 01:22:19
  TRACK 72 AUDIO
    TITLE "5:cjc081_1562"
    INDEX 01 01:22:60
  TRACK 73 AUDIO
    TITLE "0:"
    INDEX 01 01:24:12
  TRACK 74 AUDIO
    TITLE "6:cjc081_1563"
    INDEX 01 01:24:57
  TRACK 75 AUDIO
    TITLE "0:"
    INDEX 01 01:27:63
  TRACK 76 AUDIO
    TITLE "5:cjc081_1564"
    INDEX 01 01:28:29
  TRACK 77 AUDIO
    TITLE "0:"
    INDEX 01 01:29:50
  TRACK 78 AUDIO
    TITLE "6:cjc081_1565"
    INDEX 01 01:30:20
  TRACK 79 AUDIO
    TITLE "0:"
    INDEX 01 01:32:21
  TRACK 80 AUDIO
    TITLE "5:cjc081_1566"
    INDEX 01 01:32:64
  TRACK 81 AUDIO
    TITLE "0:"
    INDEX 01 01:33:72
  TRACK 82 AUDIO
    TITLE "6:cjc081_1567"
    INDEX 01 01:34:42
  TRACK 83 AUDIO
    TITLE "0:"
    INDEX 01 01:37:46
  TRACK 84 AUDIO
    TITLE "5:cjc081_1568"
    INDEX 01 01:38:14
  TRACK 85 AUDIO
    TITLE "0:"
    INDEX 01 01:39:21
  TRACK 86 AUDIO
    TITLE "6:cjc081_1569"
    INDEX 01 01:39:64
  TRACK 87 AUDIO
    TITLE "0:"
    INDEX 01 01:42:39
  TRACK 88 AUDIO
    TITLE "5:cjc081_1570"
    INDEX 01 01:43:09
  TRACK 89 AUDIO
    TITLE "0:"
    INDEX 01 01:44:15
  TRACK 90 AUDIO
    TITLE "6:cjc081_1571"
    INDEX 01 01:44:66
  TRACK 91 AUDIO
    TITLE "0:"
    INDEX 01 01:46:04
  TRACK 92 AUDIO
    TITLE "5:cjc081_1572"
    INDEX 01 01:46:45
  TRACK 93 AUDIO
    TITLE "0:"
    INDEX 01 01:47:60
  TRACK 94 AUDIO
    TITLE "6:cjc081_1573"
    INDEX 01 01:48:28
  TRACK 95 AUDIO
    TITLE "0:"
    INDEX 01 01:49:45
  TRACK 96 AUDIO
    TITLE "5:cjc081_1574"
    INDEX 01 01:50:15
  TRACK 97 AUDIO
    TITLE "0:"
    INDEX 01 01:51:40
  TRACK 98 AUDIO
    TITLE "6:cjc081_1575"
    INDEX 01 01:52:10
  TRACK 99 AUDIO
    TITLE "0:"
    INDEX 01 01:53:51
  TRACK 100 AUDIO
    TITLE "5:cjc081_1576"
    INDEX 01 01:54:21
  TRACK 101 AUDIO
    TITLE "0:"
    INDEX 01 01:55:54
  TRACK 102 AUDIO
    TITLE "6:cjc081_1577"
    INDEX 01 01:56:26
  TRACK 103 AUDIO
    TITLE "0:"
    INDEX 01 01:57:51
  TRACK 104 AUDIO
    TITLE "7:cjc081_1578"
    INDEX 01 01:59:12
  TRACK 105 AUDIO
    TITLE "0:"
    INDEX 01 02:10:16
